<?xml version="1.0" encoding="UTF-8"?>
<svg id="Layer_1" xmlns="http://www.w3.org/2000/svg" version="1.1" viewBox="0 0 504 504">
  <!-- Generator: Adobe Illustrator 29.6.0, SVG Export Plug-In . SVG Version: 2.1.1 Build 207)  -->
  <defs>
    <style>
      .st0 {
        fill: #61b630;
      }

      .st1 {
        fill: #12ade5;
      }

      .st2 {
        fill: #fff;
        font-family: Helvetica-BoldOblique, Helvetica;
        font-size: 72px;
        font-style: oblique;
        font-weight: 700;
      }

      .st3 {
        fill: none;
        stroke: #fff;
        stroke-width: 1.5px;
      }

      .st3, .st4 {
        stroke-miterlimit: 10;
      }

      .st4 {
        fill: #9d3724;
        stroke: #231916;
        stroke-width: 5px;
      }

      .st5 {
        fill: #fef010;
      }
    </style>
  </defs>
  <polygon class="st4" points="257.5 419.29 104.07 330.71 104.07 153.55 257.5 64.97 410.92 153.55 410.92 330.71 257.5 419.29"/>
  <text class="st2" transform="translate(159.79 283)"><tspan x="0" y="0">mapa</tspan></text>
  <polyline class="st3" points="307.51 233.81 307.52 233.6 307.56 233.41 307.63 233.22 307.73 233.02 307.86 232.83 308.01 232.65 308.19 232.47 308.38 232.29 308.62 232.11 308.86 231.94 309.13 231.78 309.42 231.61 309.74 231.46 310.07 231.29 310.43 231.14 310.8 230.99 311.2 230.84 311.62 230.7 312.06 230.55 312.5 230.41 312.97 230.27 313.45 230.13 313.97 230.01 314.48 229.87 315 229.75 315.56 229.61 316.11 229.48 316.69 229.36 317.27 229.25 317.86 229.12 318.47 229 319.09 228.89 319.73 228.78 320.37 228.65 321.02 228.54 321.67 228.43 322.33 228.32 323.01 228.21 323.68 228.1 324.36 228 325.05 227.89 325.76 227.78 326.45 227.69 327.15 227.58 327.86 227.48 328.58 227.37 329.28 227.27 330 227.16 330.71 227.06 331.43 226.95 332.13 226.86 332.85 226.75 333.55 226.65 334.27 226.54 334.98 226.44 335.68 226.33 336.37 226.23 337.07 226.12 337.76 226.01 338.45 225.9 339.13 225.81 339.8 225.7 340.47 225.58 341.12 225.47 341.77 225.36 342.4 225.24 343.04 225.13 343.66 225.02 344.27 224.89 344.86 224.77 345.44 224.66 346.02 224.53 346.58 224.41 347.13 224.27 347.66 224.15 348.17 224.01 348.68 223.88 349.16 223.75 349.63 223.61 350.07 223.47 350.52 223.32 350.93 223.18 351.32 223.03 351.71 222.88 352.07 222.72 352.4 222.56 352.72 222.4 353.01 222.24 353.27 222.07 353.52 221.89 353.75 221.73 353.95 221.55 354.13 221.37 354.26 221.19 354.39 220.99 354.48 220.8 354.57 220.61 354.61 220.4 354.62 220.21"/>
  <polyline class="st3" points="303.21 220.72 303.21 220.15 303.25 219.6 303.29 219.07 303.36 218.53 303.45 218.02 303.56 217.51 303.67 217.01 303.8 216.53 303.96 216.06 304.14 215.59 304.32 215.12 304.52 214.68 304.74 214.23 304.97 213.81 305.21 213.38 305.48 212.96 305.75 212.55 306.03 212.15 306.33 211.76 306.65 211.37 306.97 210.99 307.3 210.61 307.65 210.24 308.01 209.88 308.38 209.53 308.75 209.18 309.14 208.83 309.53 208.5 309.93 208.17 310.34 207.83 310.77 207.5 311.19 207.18 311.63 206.87 312.07 206.56 312.51 206.24 312.97 205.94 313.43 205.64 313.88 205.33 314.35 205.04 314.82 204.75 315.31 204.45 315.79 204.16 316.26 203.87 316.76 203.59 317.24 203.3 317.73 203.01 318.22 202.73 318.71 202.44 319.21 202.17 319.69 201.88 320.19 201.6 320.67 201.31 321.17 201.03 321.65 200.74 322.15 200.45 322.63 200.18 323.1 199.89 323.59 199.59 324.07 199.3 324.54 199 325.01 198.71 325.47 198.41 325.92 198.1 326.38 197.8 326.82 197.49 327.26 197.18 327.71 196.86 328.12 196.54 328.55 196.21 328.97 195.89 329.37 195.54 329.75 195.21 330.14 194.87 330.53 194.52 330.89 194.16 331.25 193.8 331.59 193.43 331.92 193.06 332.24 192.68 332.56 192.3 332.86 191.89 333.14 191.49 333.42 191.08 333.68 190.66 333.93 190.24 334.15 189.81 334.37 189.36 334.58 188.92 334.76 188.45 334.94 188 335.09 187.51 335.23 187.03 335.35 186.53 335.45 186.02 335.53 185.51 335.6 184.98 335.66 184.44 335.68 183.89 335.68 183.32"/>
  <polyline class="st3" points="283.55 200.84 283.54 200.06 283.51 199.3 283.47 198.56 283.4 197.83 283.32 197.11 283.22 196.4 283.1 195.71 282.96 195.03 282.81 194.37 282.64 193.72 282.46 193.08 282.27 192.46 282.04 191.85 281.82 191.24 281.57 190.66 281.33 190.08 281.06 189.52 280.77 188.95 280.48 188.41 280.18 187.87 279.86 187.35 279.53 186.82 279.2 186.31 278.85 185.81 278.49 185.31 278.12 184.83 277.75 184.36 277.36 183.89 276.96 183.42 276.56 182.96 276.14 182.51 275.73 182.07 275.3 181.62 274.87 181.19 274.43 180.77 273.99 180.34 273.54 179.92 273.09 179.51 272.62 179.09 272.16 178.68 271.69 178.28 271.22 177.88 270.75 177.48 270.28 177.07 269.8 176.67 269.33 176.27 268.84 175.89 268.36 175.48 267.87 175.1 267.39 174.71 266.91 174.31 266.42 173.92 265.95 173.52 265.47 173.12 265 172.73 264.52 172.33 264.05 171.93 263.58 171.53 263.11 171.12 262.65 170.72 262.19 170.3 261.74 169.89 261.28 169.46 260.84 169.04 260.41 168.61 259.97 168.17 259.55 167.73 259.12 167.29 258.71 166.84 258.31 166.39 257.92 165.92 257.53 165.45 257.15 164.96 256.79 164.48 256.43 164 256.07 163.49 255.74 162.97 255.41 162.46 255.09 161.94 254.78 161.4 254.49 160.84 254.22 160.29 253.94 159.73 253.69 159.14 253.44 158.55 253.22 157.96 253.01 157.35 252.81 156.71 252.63 156.08 252.46 155.43 252.31 154.76 252.17 154.08 252.06 153.41 251.95 152.7 251.87 151.98 251.8 151.25 251.76 150.5 251.73 149.73 251.71 148.96"/>
  <polyline class="st3" points="223.11 209.4 223.11 211.1 223.11 212.78 223.1 214.43 223.08 216.03 223.07 217.62 223.04 219.17 223.01 220.68 222.99 222.17 222.96 223.62 222.92 225.06 222.89 226.46 222.85 227.82 222.81 229.18 222.75 230.51 222.71 231.79 222.66 233.06 222.6 234.32 222.53 235.54 222.48 236.75 222.41 237.93 222.35 239.09 222.28 240.24 222.21 241.36 222.13 242.46 222.06 243.54 221.99 244.61 221.91 245.66 221.83 246.69 221.74 247.72 221.66 248.73 221.58 249.72 221.49 250.69 221.4 251.66 221.31 252.61 221.22 253.57 221.13 254.49 221.04 255.42 220.94 256.33 220.84 257.24 220.75 258.14 220.65 259.04 220.55 259.92 220.46 260.81 220.36 261.68 220.26 262.55 220.17 263.42 220.06 264.29 219.96 265.16 219.86 266.02 219.77 266.89 219.66 267.75 219.56 268.62 219.46 269.49 219.36 270.36 219.27 271.23 219.16 272.12 219.06 272.99 218.96 273.87 218.87 274.77 218.77 275.67 218.69 276.58 218.59 277.5 218.49 278.42 218.4 279.35 218.31 280.3 218.22 281.26 218.13 282.22 218.05 283.2 217.95 284.19 217.87 285.2 217.79 286.22 217.72 287.26 217.64 288.31 217.55 289.37 217.48 290.46 217.42 291.55 217.35 292.69 217.28 293.82 217.21 294.98 217.14 296.17 217.08 297.37 217.03 298.59 216.97 299.85 216.92 301.12 216.86 302.42 216.82 303.73 216.78 305.09 216.74 306.46 216.7 307.87 216.67 309.29 216.63 310.74 216.6 312.24 216.57 313.76 216.56 315.31 216.54 316.88 216.53 318.5 216.52 320.13 216.52 321.82 216.5 323.53"/>
  <polyline class="st3" points="335.68 183.32 335.7 183.02 335.74 182.73 335.81 182.42 335.9 182.13 336.02 181.86 336.17 181.58 336.33 181.32 336.51 181.04 336.73 180.79 336.97 180.53 337.23 180.28 337.51 180.03 337.81 179.8 338.13 179.56 338.46 179.33 338.82 179.11 339.21 178.87 339.6 178.66 340.01 178.44 340.44 178.24 340.88 178.03 341.35 177.82 341.82 177.63 342.32 177.42 342.83 177.23 343.34 177.05 343.88 176.85 344.42 176.67 344.97 176.48 345.55 176.3 346.12 176.13 346.72 175.95 347.32 175.79 347.93 175.61 348.54 175.44 349.16 175.28 349.8 175.11 350.43 174.95 351.08 174.79 351.73 174.63 352.4 174.46 353.06 174.31 353.72 174.16 354.39 173.99 355.07 173.84 355.74 173.69 356.42 173.52 357.1 173.37 357.78 173.22 358.45 173.07 359.13 172.91 359.81 172.76 360.48 172.6 361.16 172.44 361.84 172.29 362.5 172.14 363.17 171.97 363.83 171.82 364.49 171.66 365.14 171.5 365.79 171.34 366.43 171.17 367.07 171.01 367.69 170.84 368.31 170.67 368.92 170.51 369.51 170.33 370.11 170.15 370.69 169.98 371.25 169.8 371.81 169.61 372.35 169.43 372.89 169.25 373.41 169.06 373.91 168.86 374.41 168.66 374.88 168.46 375.35 168.25 375.79 168.05 376.22 167.84 376.63 167.62 377.03 167.41 377.41 167.19 377.77 166.96 378.1 166.72 378.43 166.49 378.72 166.25 379.01 166 379.26 165.75 379.49 165.5 379.71 165.24 379.89 164.98 380.06 164.7 380.21 164.43 380.32 164.15 380.42 163.86 380.49 163.57 380.53 163.26 380.54 162.96"/>
  <polyline class="st3" points="335.68 183.32 335.7 182.78 335.73 182.25 335.77 181.72 335.84 181.21 335.92 180.7 336.02 180.2 336.14 179.72 336.26 179.25 336.42 178.78 336.58 178.32 336.76 177.88 336.96 177.43 337.16 177.01 337.38 176.58 337.62 176.16 337.87 175.76 338.13 175.36 338.41 174.96 338.68 174.59 338.99 174.2 339.31 173.83 339.62 173.47 339.96 173.11 340.29 172.76 340.65 172.4 341.01 172.07 341.38 171.72 341.75 171.39 342.14 171.07 342.54 170.76 342.94 170.44 343.34 170.12 343.77 169.82 344.19 169.51 344.61 169.21 345.06 168.9 345.49 168.61 345.93 168.32 346.38 168.03 346.84 167.74 347.3 167.45 347.75 167.18 348.21 166.89 348.68 166.61 349.15 166.33 349.62 166.06 350.09 165.78 350.56 165.5 351.03 165.23 351.5 164.95 351.97 164.67 352.44 164.4 352.91 164.11 353.38 163.83 353.85 163.55 354.32 163.28 354.78 162.99 355.23 162.71 355.69 162.42 356.14 162.13 356.6 161.84 357.04 161.55 357.47 161.26 357.91 160.96 358.34 160.65 358.76 160.35 359.19 160.04 359.59 159.73 359.99 159.41 360.39 159.09 360.78 158.77 361.15 158.44 361.52 158.09 361.88 157.76 362.24 157.42 362.57 157.06 362.9 156.7 363.22 156.34 363.54 155.96 363.83 155.58 364.12 155.2 364.4 154.8 364.66 154.4 364.91 154 365.14 153.59 365.36 153.16 365.57 152.73 365.77 152.29 365.95 151.85 366.11 151.39 366.26 150.92 366.39 150.45 366.51 149.97 366.61 149.47 366.69 148.96 366.75 148.44 366.8 147.92 366.83 147.38 366.84 146.84"/>
  <polyline class="st3" points="335.68 183.32 335.7 182.56 335.71 181.83 335.73 181.1 335.77 180.39 335.79 179.69 335.85 179 335.9 178.33 335.97 177.67 336.04 177.03 336.11 176.4 336.21 175.78 336.29 175.17 336.4 174.57 336.5 173.98 336.62 173.41 336.73 172.84 336.87 172.29 337 171.75 337.14 171.21 337.29 170.7 337.43 170.18 337.59 169.68 337.74 169.18 337.91 168.7 338.08 168.21 338.26 167.74 338.43 167.27 338.61 166.82 338.81 166.36 338.99 165.92 339.2 165.48 339.39 165.05 339.58 164.62 339.79 164.19 340 163.78 340.2 163.36 340.43 162.96 340.63 162.55 340.85 162.14 341.08 161.76 341.3 161.36 341.52 160.97 341.74 160.57 341.96 160.18 342.18 159.79 342.42 159.41 342.64 159.03 342.87 158.65 343.09 158.26 343.33 157.87 343.55 157.5 343.77 157.11 344.01 156.73 344.23 156.34 344.46 155.95 344.68 155.56 344.9 155.18 345.13 154.79 345.35 154.39 345.57 153.99 345.78 153.59 346 153.19 346.2 152.77 346.41 152.36 346.62 151.94 346.83 151.53 347.03 151.1 347.23 150.66 347.42 150.23 347.61 149.77 347.79 149.33 347.99 148.87 348.17 148.4 348.33 147.93 348.5 147.45 348.66 146.97 348.83 146.47 348.98 145.96 349.13 145.44 349.27 144.92 349.41 144.39 349.55 143.84 349.67 143.29 349.8 142.73 349.91 142.15 350.02 141.57 350.12 140.98 350.21 140.37 350.3 139.75 350.38 139.11 350.45 138.46 350.52 137.81 350.57 137.14 350.61 136.46 350.66 135.75 350.68 135.05 350.71 134.32 350.72 133.57 350.72 132.81"/>
  <polyline class="st3" points="251.71 148.96 251.74 148.4 251.8 147.86 251.88 147.34 252 146.83 252.17 146.32 252.36 145.82 252.59 145.33 252.85 144.85 253.14 144.38 253.46 143.92 253.82 143.47 254.19 143.03 254.6 142.6 255.03 142.17 255.5 141.75 255.99 141.34 256.5 140.94 257.04 140.55 257.6 140.16 258.18 139.78 258.79 139.4 259.43 139.04 260.08 138.68 260.74 138.32 261.43 137.98 262.14 137.63 262.87 137.29 263.6 136.96 264.36 136.64 265.14 136.31 265.93 135.99 266.73 135.67 267.54 135.37 268.37 135.06 269.22 134.76 270.06 134.45 270.93 134.15 271.8 133.86 272.67 133.57 273.56 133.28 274.46 132.99 275.35 132.71 276.27 132.42 277.18 132.15 278.09 131.86 279 131.58 279.93 131.3 280.86 131.03 281.78 130.75 282.71 130.47 283.63 130.18 284.55 129.91 285.47 129.63 286.4 129.35 287.31 129.08 288.22 128.79 289.12 128.51 290.02 128.22 290.92 127.93 291.8 127.64 292.69 127.35 293.56 127.06 294.42 126.75 295.27 126.46 296.1 126.16 296.93 125.84 297.75 125.54 298.55 125.22 299.35 124.9 300.13 124.58 300.87 124.25 301.62 123.92 302.35 123.57 303.06 123.24 303.75 122.88 304.41 122.54 305.06 122.18 305.68 121.8 306.29 121.43 306.89 121.06 307.44 120.67 307.98 120.27 308.5 119.87 308.99 119.45 309.44 119.04 309.89 118.61 310.29 118.18 310.68 117.74 311.02 117.3 311.34 116.83 311.63 116.36 311.89 115.89 312.13 115.39 312.32 114.89 312.47 114.39 312.6 113.87 312.69 113.34 312.75 112.8 312.76 112.25"/>
  <polyline class="st3" points="251.71 148.96 251.73 148.32 251.77 147.68 251.82 147.08 251.91 146.47 252.02 145.87 252.14 145.29 252.29 144.73 252.46 144.17 252.65 143.62 252.86 143.08 253.1 142.56 253.35 142.04 253.61 141.55 253.9 141.05 254.2 140.56 254.52 140.08 254.85 139.61 255.21 139.15 255.57 138.7 255.96 138.26 256.36 137.83 256.77 137.4 257.2 136.97 257.63 136.57 258.09 136.15 258.56 135.75 259.03 135.37 259.51 134.98 260.01 134.59 260.52 134.22 261.05 133.85 261.57 133.47 262.1 133.11 262.65 132.75 263.19 132.41 263.76 132.05 264.32 131.7 264.89 131.36 265.47 131.03 266.05 130.68 266.63 130.35 267.23 130.02 267.82 129.68 268.41 129.35 269.02 129.03 269.62 128.7 270.23 128.39 270.83 128.05 271.44 127.74 272.05 127.4 272.66 127.09 273.25 126.75 273.86 126.44 274.47 126.1 275.06 125.77 275.66 125.45 276.25 125.12 276.85 124.79 277.44 124.45 278.02 124.11 278.59 123.77 279.17 123.44 279.74 123.09 280.29 122.73 280.84 122.39 281.38 122.03 281.92 121.65 282.45 121.29 282.96 120.92 283.47 120.55 283.97 120.16 284.45 119.77 284.93 119.39 285.39 118.98 285.85 118.57 286.29 118.15 286.72 117.74 287.12 117.31 287.52 116.87 287.91 116.43 288.28 115.98 288.63 115.51 288.97 115.06 289.29 114.57 289.59 114.09 289.87 113.59 290.15 113.08 290.39 112.57 290.62 112.04 290.84 111.51 291.02 110.97 291.2 110.41 291.35 109.83 291.47 109.27 291.57 108.67 291.65 108.06 291.72 107.44 291.75 106.82 291.76 106.18"/>
  <polyline class="st3" points="251.71 148.96 251.73 148.26 251.74 147.6 251.77 146.94 251.81 146.29 251.85 145.65 251.91 145.03 251.98 144.42 252.06 143.83 252.14 143.23 252.24 142.67 252.35 142.1 252.46 141.55 252.59 141.01 252.71 140.48 252.85 139.96 253 139.44 253.15 138.95 253.32 138.45 253.48 137.97 253.66 137.5 253.84 137.03 254.02 136.57 254.23 136.11 254.42 135.67 254.63 135.24 254.84 134.81 255.06 134.38 255.28 133.97 255.52 133.56 255.75 133.15 255.99 132.75 256.22 132.37 256.47 131.98 256.72 131.59 256.97 131.21 257.22 130.83 257.48 130.46 257.74 130.1 258 129.74 258.27 129.37 258.54 129.01 258.81 128.66 259.08 128.3 259.36 127.94 259.64 127.6 259.91 127.25 260.19 126.91 260.47 126.55 260.74 126.2 261.02 125.86 261.29 125.51 261.57 125.16 261.85 124.82 262.12 124.46 262.4 124.11 262.66 123.75 262.94 123.41 263.22 123.05 263.48 122.69 263.74 122.33 264 121.97 264.27 121.6 264.53 121.22 264.78 120.85 265.04 120.46 265.29 120.09 265.52 119.7 265.77 119.3 266.01 118.9 266.24 118.5 266.46 118.09 266.69 117.67 266.91 117.26 267.11 116.83 267.32 116.39 267.53 115.94 267.72 115.5 267.92 115.03 268.1 114.57 268.26 114.09 268.44 113.61 268.59 113.12 268.75 112.61 268.9 112.1 269.04 111.59 269.17 111.05 269.29 110.51 269.41 109.96 269.51 109.39 269.6 108.82 269.7 108.24 269.77 107.63 269.84 107.03 269.89 106.4 269.95 105.77 269.99 105.13 270.02 104.47 270.03 103.79 270.03 103.1"/>
  <polyline class="st3" points="251.71 148.96 251.71 148.26 251.71 147.6 251.71 146.94 251.7 146.29 251.69 145.65 251.67 145.03 251.66 144.42 251.65 143.83 251.63 143.23 251.62 142.67 251.59 142.1 251.58 141.55 251.55 141.01 251.52 140.48 251.49 139.96 251.47 139.44 251.44 138.95 251.4 138.45 251.37 137.97 251.33 137.5 251.3 137.03 251.26 136.57 251.22 136.11 251.18 135.67 251.13 135.24 251.09 134.81 251.05 134.38 251.01 133.97 250.95 133.56 250.91 133.15 250.87 132.75 250.82 132.37 250.77 131.98 250.72 131.59 250.66 131.21 250.62 130.83 250.57 130.46 250.51 130.1 250.46 129.74 250.4 129.37 250.36 129.01 250.3 128.66 250.25 128.3 250.19 127.94 250.14 127.6 250.08 127.25 250.03 126.91 249.97 126.55 249.92 126.2 249.86 125.86 249.81 125.51 249.75 125.16 249.7 124.82 249.64 124.46 249.59 124.11 249.53 123.75 249.47 123.41 249.42 123.05 249.36 122.69 249.31 122.33 249.25 121.97 249.21 121.6 249.16 121.22 249.1 120.85 249.06 120.46 249 120.09 248.95 119.7 248.91 119.3 248.87 118.9 248.81 118.5 248.77 118.09 248.73 117.67 248.69 117.26 248.63 116.83 248.59 116.39 248.56 115.94 248.52 115.5 248.48 115.03 248.44 114.57 248.41 114.09 248.37 113.61 248.34 113.12 248.31 112.61 248.29 112.1 248.26 111.59 248.23 111.05 248.2 110.51 248.18 109.96 248.16 109.39 248.13 108.82 248.12 108.24 248.11 107.63 248.09 107.03 248.08 106.4 248.08 105.77 248.06 105.13 248.06 104.47 248.05 103.79 248.05 103.1"/>
  <polyline class="st3" points="251.71 148.96 251.71 148.32 251.69 147.68 251.65 147.08 251.6 146.47 251.53 145.87 251.45 145.29 251.35 144.73 251.24 144.17 251.12 143.62 251 143.08 250.84 142.56 250.69 142.04 250.53 141.55 250.33 141.05 250.15 140.56 249.94 140.08 249.72 139.61 249.5 139.15 249.27 138.7 249.03 138.26 248.77 137.83 248.51 137.4 248.24 136.97 247.97 136.57 247.68 136.15 247.39 135.75 247.08 135.37 246.78 134.98 246.46 134.59 246.13 134.22 245.81 133.85 245.48 133.47 245.13 133.11 244.79 132.75 244.44 132.41 244.08 132.05 243.72 131.7 243.36 131.36 243 131.03 242.63 130.68 242.26 130.35 241.88 130.02 241.51 129.68 241.12 129.35 240.75 129.03 240.36 128.7 239.98 128.39 239.6 128.05 239.22 127.74 238.83 127.4 238.44 127.09 238.06 126.75 237.68 126.44 237.3 126.1 236.91 125.77 236.53 125.45 236.16 125.12 235.79 124.79 235.42 124.45 235.04 124.11 234.67 123.77 234.31 123.44 233.95 123.09 233.6 122.73 233.24 122.39 232.91 122.03 232.57 121.65 232.24 121.29 231.9 120.92 231.59 120.55 231.27 120.16 230.96 119.77 230.66 119.39 230.37 118.98 230.08 118.57 229.8 118.15 229.53 117.74 229.26 117.31 229.01 116.87 228.77 116.43 228.53 115.98 228.31 115.51 228.1 115.06 227.89 114.57 227.7 114.09 227.52 113.59 227.36 113.08 227.19 112.57 227.05 112.04 226.91 111.51 226.79 110.97 226.69 110.41 226.6 109.83 226.51 109.27 226.44 108.67 226.39 108.06 226.36 107.44 226.33 106.82 226.32 106.18"/>
  <polyline class="st3" points="251.71 148.96 251.7 148.4 251.66 147.86 251.59 147.34 251.49 146.83 251.37 146.32 251.23 145.82 251.05 145.33 250.86 144.85 250.64 144.38 250.39 143.92 250.12 143.47 249.83 143.03 249.53 142.6 249.2 142.17 248.84 141.75 248.48 141.34 248.08 140.94 247.68 140.55 247.25 140.16 246.81 139.78 246.34 139.4 245.87 139.04 245.37 138.68 244.86 138.32 244.33 137.98 243.79 137.63 243.25 137.29 242.69 136.96 242.11 136.64 241.51 136.31 240.92 135.99 240.31 135.67 239.69 135.37 239.06 135.06 238.42 134.76 237.78 134.45 237.12 134.15 236.45 133.86 235.79 133.57 235.11 133.28 234.43 132.99 233.76 132.71 233.06 132.42 232.37 132.15 231.67 131.86 230.98 131.58 230.27 131.3 229.57 131.03 228.88 130.75 228.17 130.47 227.47 130.18 226.76 129.91 226.07 129.63 225.36 129.35 224.67 129.08 223.98 128.79 223.29 128.51 222.6 128.22 221.92 127.93 221.25 127.64 220.58 127.35 219.92 127.06 219.27 126.75 218.62 126.46 217.98 126.16 217.35 125.84 216.72 125.54 216.12 125.22 215.52 124.9 214.93 124.58 214.36 124.25 213.79 123.92 213.24 123.57 212.7 123.24 212.18 122.88 211.66 122.54 211.18 122.18 210.7 121.8 210.24 121.43 209.8 121.06 209.37 120.67 208.96 120.27 208.57 119.87 208.19 119.45 207.84 119.04 207.52 118.61 207.2 118.18 206.91 117.74 206.65 117.3 206.4 116.83 206.18 116.36 205.98 115.89 205.82 115.39 205.66 114.89 205.54 114.39 205.44 113.87 205.37 113.34 205.33 112.8 205.32 112.25"/>
  <polyline class="st3" points="251.71 148.96 251.7 148.54 251.63 148.14 251.53 147.74 251.4 147.34 251.23 146.95 251.02 146.58 250.77 146.22 250.5 145.85 250.18 145.5 249.83 145.15 249.45 144.81 249.03 144.48 248.59 144.14 248.12 143.83 247.62 143.51 247.08 143.2 246.53 142.9 245.95 142.6 245.34 142.31 244.71 142.02 244.04 141.74 243.36 141.46 242.66 141.19 241.93 140.91 241.18 140.65 240.42 140.4 239.63 140.14 238.83 139.89 238 139.64 237.17 139.39 236.31 139.15 235.44 138.91 234.56 138.67 233.66 138.45 232.75 138.21 231.82 137.99 230.89 137.76 229.94 137.54 228.99 137.32 228.03 137.09 227.07 136.89 226.08 136.67 225.1 136.46 224.11 136.24 223.13 136.03 222.13 135.82 221.12 135.6 220.13 135.39 219.12 135.19 218.12 134.98 217.11 134.76 216.12 134.55 215.12 134.34 214.11 134.14 213.13 133.91 212.13 133.71 211.15 133.49 210.17 133.28 209.2 133.06 208.25 132.84 207.3 132.62 206.34 132.39 205.42 132.17 204.49 131.94 203.58 131.72 202.68 131.48 201.79 131.25 200.92 131.01 200.07 130.76 199.24 130.53 198.41 130.28 197.61 130.02 196.82 129.77 196.06 129.5 195.31 129.24 194.58 128.98 193.87 128.7 193.2 128.43 192.53 128.14 191.9 127.86 191.29 127.56 190.71 127.27 190.15 126.96 189.61 126.64 189.12 126.34 188.65 126.01 188.2 125.69 187.79 125.34 187.4 125.01 187.06 124.67 186.75 124.31 186.46 123.95 186.21 123.57 186.01 123.2 185.84 122.81 185.7 122.43 185.61 122.03 185.54 121.61 185.52 121.2"/>
  <polyline class="st3" points="251.71 148.96 251.69 148.72 251.62 148.47 251.49 148.25 251.31 148.02 251.09 147.79 250.83 147.57 250.51 147.37 250.15 147.14 249.75 146.95 249.31 146.74 248.82 146.55 248.3 146.34 247.73 146.16 247.14 145.97 246.49 145.79 245.82 145.61 245.11 145.43 244.36 145.26 243.59 145.08 242.78 144.92 241.94 144.75 241.07 144.6 240.17 144.44 239.24 144.28 238.29 144.13 237.32 143.98 236.31 143.83 235.29 143.67 234.24 143.54 233.18 143.4 232.08 143.26 230.98 143.12 229.84 142.98 228.7 142.85 227.55 142.71 226.36 142.58 225.17 142.44 223.97 142.32 222.75 142.2 221.54 142.06 220.29 141.93 219.05 141.81 217.8 141.68 216.54 141.56 215.27 141.44 214 141.31 212.73 141.19 211.46 141.08 210.17 140.95 208.9 140.83 207.63 140.7 206.34 140.58 205.07 140.45 203.8 140.33 202.54 140.2 201.28 140.08 200.02 139.96 198.78 139.83 197.55 139.71 196.32 139.58 195.1 139.46 193.9 139.32 192.71 139.2 191.54 139.06 190.38 138.93 189.23 138.79 188.11 138.66 186.99 138.52 185.91 138.38 184.83 138.24 183.78 138.09 182.76 137.95 181.76 137.8 180.78 137.65 179.83 137.5 178.9 137.33 178 137.18 177.13 137.01 176.3 136.85 175.49 136.68 174.71 136.51 173.97 136.33 173.26 136.17 172.58 135.99 171.95 135.79 171.34 135.62 170.77 135.42 170.25 135.23 169.76 135.03 169.32 134.83 168.92 134.62 168.56 134.41 168.26 134.19 167.98 133.98 167.76 133.75 167.59 133.53 167.47 133.29 167.39 133.06 167.36 132.81"/>
  <polyline class="st3" points="216.5 323.53 216.49 321.11 216.42 318.76 216.3 316.44 216.13 314.17 215.92 311.96 215.67 309.78 215.38 307.65 215.05 305.55 214.66 303.5 214.25 301.49 213.81 299.52 213.31 297.58 212.78 295.69 212.22 293.82 211.62 292 210.99 290.21 210.32 288.46 209.63 286.73 208.9 285.04 208.14 283.37 207.35 281.74 206.55 280.14 205.71 278.56 204.84 277.01 203.95 275.48 203.02 273.97 202.1 272.49 201.13 271.04 200.15 269.6 199.15 268.19 198.13 266.8 197.09 265.41 196.04 264.06 194.96 262.72 193.89 261.39 192.78 260.08 191.66 258.78 190.54 257.48 189.41 256.21 188.26 254.93 187.1 253.69 185.94 252.43 184.76 251.19 183.59 249.96 182.4 248.73 181.21 247.51 180.02 246.28 178.82 245.06 177.63 243.85 176.43 242.63 175.24 241.41 174.03 240.2 172.85 238.98 171.66 237.75 170.48 236.52 169.29 235.29 168.12 234.05 166.96 232.8 165.8 231.54 164.65 230.27 163.51 229 162.39 227.71 161.27 226.41 160.18 225.1 159.09 223.77 158.01 222.43 156.96 221.06 155.92 219.7 154.9 218.3 153.91 216.88 152.92 215.44 151.96 213.99 151.03 212.51 150.1 211 149.22 209.48 148.35 207.93 147.51 206.35 146.7 204.74 145.92 203.11 145.16 201.45 144.42 199.75 143.73 198.03 143.07 196.28 142.43 194.48 141.84 192.65 141.27 190.79 140.75 188.89 140.26 186.96 139.81 185 139.39 182.98 139 180.93 138.67 178.84 138.38 176.7 138.13 174.53 137.93 172.31 137.76 170.04 137.65 167.73 137.57 165.37 137.55 162.96"/>
  <polyline class="st3" points="216.5 323.53 216.48 321.39 216.41 319.29 216.27 317.23 216.07 315.22 215.84 313.25 215.56 311.31 215.22 309.42 214.84 307.55 214.42 305.72 213.95 303.94 213.42 302.19 212.87 300.47 212.26 298.78 211.62 297.13 210.95 295.51 210.23 293.92 209.47 292.36 208.66 290.82 207.84 289.32 206.98 287.84 206.08 286.38 205.15 284.96 204.2 283.56 203.22 282.18 202.2 280.83 201.16 279.49 200.09 278.17 198.99 276.87 197.88 275.6 196.73 274.34 195.57 273.1 194.38 271.88 193.2 270.67 191.96 269.48 190.73 268.29 189.48 267.13 188.2 265.97 186.92 264.83 185.63 263.7 184.32 262.56 183.01 261.45 181.68 260.34 180.34 259.23 179 258.14 177.64 257.05 176.3 255.96 174.93 254.88 173.58 253.79 172.21 252.71 170.86 251.63 169.49 250.55 168.13 249.46 166.78 248.38 165.42 247.29 164.07 246.2 162.73 245.1 161.39 244 160.06 242.89 158.74 241.77 157.43 240.65 156.15 239.51 154.86 238.37 153.59 237.21 152.33 236.05 151.1 234.86 149.88 233.67 148.68 232.46 147.49 231.24 146.33 229.99 145.2 228.74 144.08 227.46 142.99 226.17 141.91 224.85 140.87 223.52 139.86 222.16 138.87 220.79 137.91 219.38 136.99 217.95 136.09 216.5 135.23 215.02 134.4 213.52 133.6 211.98 132.85 210.42 132.13 208.83 131.44 207.21 130.81 205.55 130.2 203.87 129.64 202.15 129.12 200.4 128.65 198.61 128.22 196.79 127.85 194.94 127.52 193.03 127.23 191.09 126.99 189.12 126.8 187.11 126.67 185.05 126.59 182.95 126.56 180.81"/>
  <polyline class="st3" points="216.5 323.53 216.48 321.68 216.39 319.85 216.24 318.08 216.05 316.33 215.78 314.63 215.47 312.95 215.11 311.31 214.69 309.69 214.22 308.12 213.71 306.57 213.14 305.06 212.54 303.57 211.89 302.12 211.18 300.68 210.45 299.28 209.66 297.9 208.83 296.55 207.97 295.22 207.06 293.92 206.14 292.63 205.15 291.39 204.14 290.14 203.11 288.93 202.03 287.74 200.92 286.56 199.79 285.4 198.61 284.27 197.43 283.15 196.21 282.04 194.96 280.95 193.71 279.89 192.42 278.82 191.11 277.77 189.78 276.75 188.43 275.73 187.06 274.72 185.67 273.71 184.28 272.73 182.87 271.74 181.44 270.76 180.01 269.8 178.57 268.84 177.12 267.89 175.65 266.93 174.19 265.99 172.71 265.05 171.23 264.11 169.75 263.17 168.26 262.23 166.78 261.29 165.3 260.37 163.8 259.43 162.33 258.49 160.86 257.55 159.38 256.59 157.93 255.65 156.46 254.7 155.03 253.73 153.59 252.76 152.16 251.8 150.75 250.81 149.36 249.82 147.98 248.82 146.61 247.81 145.27 246.79 143.93 245.75 142.63 244.7 141.34 243.65 140.07 242.57 138.82 241.48 137.61 240.38 136.42 239.26 135.26 238.12 134.12 236.96 133.02 235.79 131.94 234.6 130.89 233.38 129.88 232.15 128.91 230.89 127.97 229.61 127.07 228.31 126.2 226.98 125.37 225.63 124.6 224.26 123.85 222.85 123.15 221.42 122.5 219.96 121.89 218.48 121.32 216.96 120.81 215.41 120.34 213.83 119.93 212.23 119.57 210.59 119.25 208.91 119 207.2 118.79 205.46 118.64 203.67 118.56 201.86 118.53 200.01"/>
  <polyline class="st3" points="216.5 323.53 216.48 321.97 216.38 320.45 216.23 318.97 216.02 317.5 215.74 316.08 215.43 314.67 215.04 313.3 214.61 311.95 214.11 310.63 213.57 309.33 212.98 308.06 212.34 306.82 211.65 305.6 210.92 304.4 210.14 303.22 209.31 302.08 208.46 300.94 207.55 299.82 206.59 298.74 205.61 297.67 204.59 296.61 203.52 295.58 202.43 294.57 201.31 293.56 200.15 292.58 198.95 291.61 197.73 290.66 196.47 289.72 195.2 288.79 193.9 287.89 192.56 286.98 191.22 286.09 189.84 285.22 188.44 284.35 187.03 283.5 185.59 282.65 184.14 281.82 182.67 280.99 181.2 280.16 179.7 279.35 178.2 278.55 176.68 277.74 175.14 276.94 173.61 276.14 172.07 275.35 170.52 274.56 168.96 273.78 167.41 272.99 165.85 272.21 164.29 271.43 162.74 270.64 161.18 269.85 159.63 269.08 158.08 268.27 156.53 267.49 155 266.7 153.48 265.9 151.96 265.09 150.45 264.28 148.96 263.46 147.48 262.65 146 261.82 144.55 260.98 143.12 260.13 141.7 259.27 140.3 258.4 138.93 257.53 137.58 256.65 136.25 255.75 134.95 254.84 133.67 253.91 132.42 252.97 131.19 252.02 130 251.05 128.84 250.07 127.71 249.07 126.62 248.05 125.57 247.03 124.54 245.96 123.55 244.9 122.61 243.81 121.7 242.7 120.82 241.57 120.01 240.4 119.22 239.23 118.49 238.04 117.81 236.81 117.16 235.57 116.58 234.29 116.03 233.01 115.54 231.68 115.12 230.34 114.73 228.96 114.4 227.56 114.13 226.12 113.91 224.67 113.76 223.18 113.66 221.66 113.64 220.11"/>
  <polyline class="st3" points="216.5 323.53 216.48 322.29 216.38 321.07 216.23 319.87 216.01 318.71 215.74 317.56 215.4 316.42 215.01 315.33 214.57 314.25 214.07 313.19 213.53 312.15 212.92 311.13 212.27 310.13 211.58 309.17 210.84 308.2 210.03 307.26 209.2 306.33 208.32 305.43 207.41 304.54 206.44 303.66 205.43 302.81 204.39 301.96 203.31 301.14 202.21 300.32 201.06 299.52 199.89 298.73 198.67 297.96 197.43 297.2 196.15 296.43 194.85 295.7 193.54 294.97 192.19 294.25 190.8 293.55 189.41 292.84 188 292.15 186.56 291.46 185.09 290.78 183.63 290.1 182.14 289.44 180.63 288.79 179.11 288.13 177.57 287.49 176.04 286.84 174.49 286.2 172.93 285.57 171.35 284.93 169.79 284.3 168.21 283.66 166.62 283.04 165.05 282.42 163.46 281.78 161.88 281.16 160.29 280.52 158.72 279.9 157.14 279.26 155.58 278.63 154.02 277.99 152.47 277.36 150.92 276.71 149.4 276.06 147.88 275.41 146.37 274.74 144.88 274.08 143.4 273.42 141.95 272.74 140.51 272.05 139.09 271.36 137.69 270.65 136.32 269.95 134.97 269.23 133.64 268.5 132.35 267.75 131.08 267 129.84 266.24 128.62 265.47 127.45 264.68 126.3 263.88 125.18 263.06 124.11 262.23 123.06 261.39 122.07 260.53 121.1 259.65 120.19 258.76 119.3 257.85 118.46 256.94 117.67 256 116.93 255.03 116.23 254.05 115.59 253.05 114.98 252.04 114.42 251.01 113.93 249.94 113.48 248.86 113.1 247.76 112.76 246.64 112.49 245.49 112.28 244.32 112.12 243.13 112.03 241.91 111.99 240.67"/>
  <polyline class="st3" points="216.5 323.53 216.48 322.59 216.38 321.68 216.23 320.78 216.02 319.89 215.74 319.04 215.43 318.19 215.04 317.36 214.61 316.55 214.11 315.76 213.57 314.97 212.98 314.21 212.34 313.47 211.65 312.72 210.92 312 210.14 311.3 209.31 310.6 208.46 309.91 207.55 309.25 206.59 308.59 205.61 307.95 204.59 307.31 203.52 306.69 202.43 306.08 201.31 305.48 200.15 304.88 198.95 304.3 197.73 303.72 196.47 303.17 195.2 302.6 193.9 302.06 192.56 301.51 191.22 300.98 189.84 300.46 188.44 299.93 187.03 299.42 185.59 298.91 184.14 298.4 182.67 297.9 181.2 297.4 179.7 296.92 178.2 296.42 176.68 295.94 175.14 295.47 173.61 294.98 172.07 294.51 170.52 294.03 168.96 293.56 167.41 293.09 165.85 292.62 164.29 292.14 162.74 291.67 161.18 291.2 159.63 290.73 158.08 290.24 156.53 289.77 155 289.29 153.48 288.8 151.96 288.32 150.45 287.84 148.96 287.35 147.48 286.85 146 286.36 144.55 285.85 143.12 285.33 141.7 284.82 140.3 284.3 138.93 283.77 137.58 283.23 136.25 282.69 134.95 282.15 133.67 281.59 132.42 281.02 131.19 280.45 130 279.87 128.84 279.28 127.71 278.67 126.62 278.06 125.57 277.44 124.54 276.8 123.55 276.15 122.61 275.5 121.7 274.83 120.82 274.15 120.01 273.46 119.22 272.75 118.49 272.03 117.81 271.29 117.16 270.54 116.58 269.78 116.03 268.99 115.54 268.21 115.12 267.39 114.73 266.56 114.4 265.72 114.13 264.86 113.91 263.98 113.76 263.08 113.66 262.16 113.64 261.22"/>
  <polyline class="st3" points="216.5 323.53 216.48 322.89 216.39 322.27 216.24 321.66 216.05 321.07 215.78 320.49 215.47 319.91 215.11 319.36 214.69 318.8 214.22 318.26 213.71 317.74 213.14 317.21 212.54 316.72 211.89 316.2 211.18 315.72 210.45 315.24 209.66 314.77 208.83 314.31 207.97 313.85 207.06 313.41 206.14 312.97 205.15 312.54 204.14 312.13 203.11 311.71 202.03 311.3 200.92 310.9 199.79 310.51 198.61 310.12 197.43 309.73 196.21 309.36 194.96 308.99 193.71 308.61 192.42 308.25 191.11 307.9 189.78 307.55 188.43 307.19 187.06 306.84 185.67 306.51 184.28 306.17 182.87 305.84 181.44 305.5 180.01 305.17 178.57 304.84 177.12 304.52 175.65 304.19 174.19 303.87 172.71 303.55 171.23 303.22 169.75 302.9 168.26 302.59 166.78 302.27 165.3 301.95 163.8 301.63 162.33 301.3 160.86 300.98 159.38 300.67 157.93 300.33 156.46 300.02 155.03 299.68 153.59 299.35 152.16 299.02 150.75 298.69 149.36 298.34 147.98 298.01 146.61 297.67 145.27 297.31 143.93 296.96 142.63 296.6 141.34 296.24 140.07 295.87 138.82 295.49 137.61 295.12 136.42 294.73 135.26 294.35 134.12 293.96 133.02 293.56 131.94 293.14 130.89 292.73 129.88 292.32 128.91 291.89 127.97 291.44 127.07 291 126.2 290.55 125.37 290.09 124.6 289.62 123.85 289.14 123.15 288.64 122.5 288.14 121.89 287.64 121.32 287.12 120.81 286.59 120.34 286.05 119.93 285.5 119.57 284.95 119.25 284.37 119 283.79 118.79 283.19 118.64 282.58 118.56 281.96 118.53 281.32"/>
  <polyline class="st3" points="216.5 323.53 216.48 323.19 216.41 322.84 216.27 322.51 216.07 322.19 215.84 321.87 215.56 321.55 215.22 321.25 214.84 320.95 214.42 320.66 213.95 320.36 213.42 320.09 212.87 319.81 212.26 319.54 211.62 319.27 210.95 319.01 210.23 318.75 209.47 318.5 208.66 318.25 207.84 318.01 206.98 317.78 206.08 317.54 205.15 317.31 204.2 317.09 203.22 316.87 202.2 316.65 201.16 316.42 200.09 316.22 198.99 316.01 197.88 315.8 196.73 315.6 195.57 315.4 194.38 315.19 193.2 315 191.96 314.81 190.73 314.63 189.48 314.43 188.2 314.25 186.92 314.06 185.63 313.88 184.32 313.7 183.01 313.52 181.68 313.34 180.34 313.16 179 312.98 177.64 312.82 176.3 312.64 174.93 312.46 173.58 312.29 172.21 312.11 170.86 311.93 169.49 311.77 168.13 311.59 166.78 311.41 165.42 311.24 164.07 311.06 162.73 310.88 161.39 310.7 160.06 310.52 158.74 310.34 157.43 310.16 156.15 309.98 154.86 309.8 153.59 309.61 152.33 309.43 151.1 309.24 149.88 309.04 148.68 308.85 147.49 308.66 146.33 308.45 145.2 308.24 144.08 308.05 142.99 307.83 141.91 307.62 140.87 307.41 139.86 307.19 138.87 306.97 137.91 306.73 136.99 306.51 136.09 306.28 135.23 306.03 134.4 305.79 133.6 305.55 132.85 305.3 132.13 305.03 131.44 304.77 130.81 304.51 130.2 304.23 129.64 303.96 129.12 303.68 128.65 303.39 128.22 303.1 127.85 302.79 127.52 302.49 127.23 302.19 126.99 301.85 126.8 301.54 126.67 301.2 126.59 300.87 126.56 300.53"/>
  <polyline class="st3" points="216.5 323.53 216.49 323.45 216.42 323.38 216.3 323.3 216.13 323.23 215.92 323.16 215.67 323.09 215.38 323.02 215.05 322.95 214.66 322.88 214.25 322.83 213.81 322.76 213.31 322.69 212.78 322.63 212.22 322.58 211.62 322.52 210.99 322.45 210.32 322.4 209.63 322.34 208.9 322.29 208.14 322.25 207.35 322.19 206.55 322.13 205.71 322.08 204.84 322.04 203.95 321.98 203.02 321.94 202.1 321.89 201.13 321.84 200.15 321.8 199.15 321.75 198.13 321.71 197.09 321.66 196.04 321.62 194.96 321.58 193.89 321.54 192.78 321.48 191.66 321.44 190.54 321.4 189.41 321.37 188.26 321.33 187.1 321.29 185.94 321.25 184.76 321.21 183.59 321.17 182.4 321.13 181.21 321.08 180.02 321.04 178.82 321.01 177.63 320.97 176.43 320.93 175.24 320.89 174.03 320.85 172.85 320.82 171.66 320.78 170.48 320.74 169.29 320.7 168.12 320.66 166.96 320.61 165.8 320.57 164.65 320.53 163.51 320.49 162.39 320.45 161.27 320.41 160.18 320.36 159.09 320.32 158.01 320.28 156.96 320.24 155.92 320.2 154.9 320.16 153.91 320.1 152.92 320.06 151.96 320.02 151.03 319.96 150.1 319.92 149.22 319.87 148.35 319.83 147.51 319.77 146.7 319.72 145.92 319.66 145.16 319.6 144.42 319.56 143.73 319.51 143.07 319.44 142.43 319.38 141.84 319.33 141.27 319.27 140.75 319.2 140.26 319.15 139.81 319.08 139.39 319.02 139 318.95 138.67 318.89 138.38 318.82 138.13 318.75 137.93 318.68 137.76 318.61 137.65 318.53 137.57 318.46 137.55 318.37"/>
  <polyline class="st3" points="216.5 323.53 216.49 323.7 216.43 323.85 216.34 324.01 216.2 324.17 216.03 324.32 215.83 324.47 215.58 324.61 215.3 324.75 214.98 324.9 214.65 325.04 214.28 325.16 213.86 325.3 213.43 325.42 212.96 325.55 212.47 325.67 211.94 325.8 211.4 325.92 210.82 326.05 210.23 326.16 209.59 326.27 208.94 326.38 208.28 326.49 207.57 326.6 206.87 326.71 206.12 326.81 205.37 326.92 204.6 327.01 203.8 327.11 203 327.21 202.17 327.3 201.32 327.4 200.47 327.5 199.6 327.6 198.71 327.68 197.81 327.77 196.9 327.86 195.97 327.95 195.05 328.04 194.11 328.12 193.15 328.22 192.2 328.3 191.23 328.38 190.26 328.47 189.3 328.55 188.32 328.63 187.33 328.71 186.35 328.8 185.36 328.88 184.38 328.96 183.38 329.05 182.4 329.13 181.4 329.21 180.42 329.31 179.44 329.39 178.46 329.48 177.49 329.56 176.52 329.64 175.56 329.72 174.6 329.81 173.65 329.9 172.71 329.99 171.78 330.07 170.86 330.17 169.96 330.25 169.06 330.35 168.17 330.43 167.3 330.53 166.45 330.62 165.6 330.72 164.77 330.82 163.96 330.91 163.17 331.01 162.39 331.11 161.63 331.22 160.9 331.31 160.18 331.42 159.49 331.54 158.81 331.65 158.16 331.76 157.54 331.87 156.93 331.98 156.37 332.1 155.81 332.23 155.29 332.34 154.79 332.46 154.33 332.6 153.89 332.72 153.49 332.86 153.12 332.99 152.77 333.12 152.45 333.26 152.18 333.42 151.94 333.55 151.74 333.71 151.56 333.86 151.43 334.01 151.33 334.18 151.27 334.33 151.25 334.49"/>
  <polyline class="st3" points="216.5 323.53 216.49 323.9 216.45 324.26 216.38 324.62 216.27 324.98 216.14 325.33 215.99 325.66 215.81 325.99 215.6 326.32 215.37 326.64 215.11 326.96 214.83 327.26 214.51 327.57 214.19 327.86 213.84 328.15 213.46 328.44 213.07 328.71 212.66 328.99 212.23 329.25 211.78 329.52 211.31 329.78 210.81 330.03 210.31 330.28 209.78 330.53 209.25 330.76 208.69 331.01 208.13 331.24 207.53 331.47 206.94 331.7 206.33 331.92 205.71 332.14 205.07 332.35 204.42 332.57 203.77 332.78 203.09 332.99 202.43 333.19 201.74 333.4 201.05 333.61 200.34 333.8 199.64 334.01 198.92 334.2 198.2 334.4 197.48 334.59 196.75 334.78 196.02 334.98 195.28 335.17 194.54 335.36 193.79 335.54 193.06 335.74 192.31 335.93 191.56 336.12 190.82 336.3 190.07 336.5 189.34 336.69 188.59 336.87 187.86 337.06 187.13 337.26 186.39 337.45 185.66 337.65 184.94 337.84 184.24 338.05 183.53 338.24 182.83 338.45 182.14 338.64 181.44 338.85 180.77 339.06 180.1 339.26 179.44 339.47 178.8 339.69 178.17 339.91 177.55 340.12 176.94 340.35 176.33 340.58 175.75 340.81 175.18 341.05 174.63 341.28 174.09 341.52 173.56 341.77 173.05 342.01 172.57 342.28 172.1 342.53 171.64 342.79 171.21 343.06 170.8 343.34 170.4 343.62 170.03 343.89 169.68 344.18 169.35 344.49 169.04 344.78 168.77 345.1 168.5 345.4 168.27 345.72 168.06 346.05 167.88 346.38 167.73 346.71 167.59 347.06 167.5 347.42 167.43 347.78 167.37 348.15 167.36 348.53"/>
  <polyline class="st3" points="216.5 323.53 216.5 324.07 216.48 324.61 216.42 325.13 216.37 325.66 216.28 326.16 216.19 326.65 216.06 327.15 215.94 327.62 215.78 328.09 215.62 328.55 215.45 329.01 215.26 329.43 215.05 329.88 214.83 330.29 214.6 330.72 214.35 331.12 214.08 331.52 213.81 331.91 213.52 332.3 213.23 332.68 212.92 333.06 212.6 333.42 212.27 333.77 211.93 334.13 211.58 334.48 211.22 334.83 210.85 335.16 210.48 335.49 210.09 335.82 209.7 336.14 209.3 336.46 208.89 336.77 208.47 337.08 208.06 337.4 207.63 337.7 207.2 337.99 206.76 338.3 206.31 338.59 205.87 338.88 205.42 339.17 204.96 339.46 204.5 339.73 204.05 340.02 203.59 340.3 203.12 340.58 202.65 340.85 202.18 341.14 201.73 341.42 201.25 341.7 200.78 341.97 200.31 342.25 199.84 342.53 199.37 342.8 198.9 343.08 198.45 343.37 197.98 343.65 197.52 343.92 197.07 344.21 196.61 344.5 196.15 344.79 195.71 345.08 195.27 345.37 194.83 345.66 194.4 345.97 193.97 346.27 193.55 346.58 193.14 346.88 192.74 347.2 192.34 347.52 191.94 347.85 191.55 348.17 191.18 348.5 190.8 348.84 190.44 349.17 190.1 349.53 189.77 349.88 189.44 350.24 189.12 350.61 188.8 350.99 188.51 351.36 188.22 351.75 187.94 352.13 187.69 352.53 187.44 352.95 187.21 353.36 186.99 353.79 186.78 354.22 186.59 354.66 186.41 355.11 186.24 355.58 186.09 356.03 185.97 356.52 185.84 357 185.74 357.5 185.66 358.01 185.61 358.52 185.55 359.05 185.52 359.58 185.52 360.14"/>
  <polyline class="st3" points="216.5 323.53 216.5 324.21 216.49 324.89 216.48 325.54 216.46 326.18 216.42 326.81 216.39 327.43 216.35 328.04 216.3 328.63 216.25 329.21 216.19 329.78 216.13 330.33 216.06 330.89 215.98 331.42 215.9 331.95 215.81 332.48 215.73 332.97 215.63 333.47 215.54 333.97 215.43 334.45 215.33 334.92 215.22 335.38 215.09 335.83 214.98 336.29 214.86 336.72 214.73 337.16 214.6 337.59 214.47 338 214.33 338.42 214.19 338.82 214.06 339.22 213.9 339.62 213.75 340.01 213.61 340.4 213.46 340.78 213.3 341.16 213.14 341.53 212.99 341.9 212.83 342.26 212.67 342.62 212.51 342.98 212.34 343.34 212.18 343.7 212.01 344.05 211.84 344.39 211.68 344.75 211.51 345.1 211.33 345.44 211.17 345.79 211 346.13 210.84 346.48 210.66 346.82 210.49 347.17 210.32 347.52 210.16 347.86 209.99 348.21 209.83 348.55 209.66 348.91 209.49 349.27 209.33 349.62 209.16 349.98 209 350.35 208.84 350.71 208.68 351.08 208.53 351.46 208.37 351.83 208.22 352.2 208.07 352.59 207.92 352.99 207.78 353.38 207.64 353.78 207.5 354.19 207.37 354.61 207.23 355.02 207.1 355.45 206.98 355.88 206.85 356.32 206.73 356.76 206.62 357.22 206.51 357.69 206.4 358.16 206.3 358.64 206.2 359.13 206.11 359.63 206.01 360.14 205.93 360.65 205.84 361.19 205.78 361.73 205.71 362.27 205.64 362.83 205.58 363.4 205.53 363.98 205.49 364.58 205.44 365.18 205.4 365.79 205.37 366.43 205.35 367.08 205.33 367.73 205.32 368.39 205.32 369.08"/>
  <polyline class="st3" points="216.5 323.53 216.52 324.3 216.52 325.07 216.53 325.8 216.56 326.53 216.59 327.25 216.61 327.94 216.66 328.63 216.7 329.31 216.74 329.96 216.79 330.61 216.85 331.24 216.9 331.87 216.97 332.48 217.04 333.07 217.11 333.66 217.19 334.24 217.28 334.8 217.36 335.36 217.46 335.9 217.55 336.44 217.65 336.97 217.75 337.48 217.86 337.99 217.95 338.49 218.07 338.97 218.19 339.46 218.3 339.94 218.42 340.41 218.54 340.87 218.66 341.32 218.8 341.77 218.92 342.21 219.05 342.65 219.19 343.08 219.32 343.51 219.46 343.94 219.6 344.35 219.74 344.76 219.88 345.18 220.01 345.58 220.17 345.98 220.31 346.38 220.46 346.78 220.6 347.18 220.75 347.57 220.9 347.97 221.04 348.36 221.19 348.76 221.34 349.15 221.49 349.53 221.63 349.94 221.78 350.32 221.94 350.71 222.09 351.11 222.23 351.5 222.38 351.9 222.52 352.3 222.67 352.7 222.81 353.1 222.96 353.52 223.1 353.92 223.24 354.33 223.37 354.76 223.51 355.17 223.65 355.6 223.77 356.03 223.91 356.47 224.04 356.92 224.16 357.36 224.29 357.82 224.41 358.29 224.54 358.76 224.65 359.23 224.76 359.71 224.87 360.19 224.98 360.7 225.09 361.2 225.19 361.73 225.28 362.25 225.38 362.78 225.46 363.33 225.56 363.88 225.64 364.45 225.71 365.02 225.79 365.61 225.86 366.21 225.93 366.81 225.99 367.44 226.04 368.07 226.1 368.72 226.14 369.37 226.18 370.05 226.22 370.74 226.25 371.43 226.28 372.15 226.29 372.88 226.3 373.63 226.32 374.38 226.32 375.15"/>
  <polyline class="st3" points="216.5 323.53 216.52 324.35 216.54 325.15 216.6 325.94 216.66 326.71 216.74 327.47 216.85 328.2 216.96 328.94 217.1 329.65 217.25 330.35 217.42 331.04 217.6 331.7 217.79 332.36 218 333.01 218.22 333.65 218.47 334.27 218.72 334.88 218.98 335.47 219.25 336.06 219.54 336.64 219.85 337.2 220.17 337.76 220.48 338.31 220.83 338.85 221.18 339.37 221.52 339.9 221.89 340.41 222.27 340.91 222.66 341.41 223.04 341.9 223.44 342.37 223.86 342.86 224.27 343.33 224.69 343.78 225.12 344.24 225.54 344.7 225.99 345.14 226.43 345.59 226.89 346.02 227.34 346.47 227.8 346.89 228.25 347.32 228.72 347.75 229.19 348.17 229.66 348.59 230.13 349.01 230.62 349.42 231.09 349.84 231.57 350.25 232.04 350.67 232.53 351.08 233 351.5 233.48 351.91 233.95 352.33 234.43 352.74 234.9 353.17 235.37 353.58 235.84 354.01 236.3 354.44 236.77 354.87 237.23 355.3 237.68 355.73 238.12 356.17 238.58 356.61 239.01 357.05 239.45 357.51 239.88 357.97 240.3 358.44 240.71 358.91 241.12 359.38 241.53 359.86 241.91 360.35 242.3 360.84 242.67 361.35 243.03 361.87 243.39 362.38 243.74 362.92 244.07 363.44 244.4 363.99 244.72 364.55 245.01 365.11 245.3 365.7 245.59 366.29 245.85 366.88 246.1 367.49 246.34 368.11 246.57 368.75 246.78 369.39 246.97 370.05 247.15 370.73 247.32 371.4 247.47 372.11 247.61 372.81 247.72 373.55 247.82 374.29 247.9 375.04 247.97 375.81 248.02 376.6 248.05 377.4 248.05 378.23"/>
  <polyline class="st3" points="216.5 323.53 216.53 324.35 216.57 325.15 216.66 325.94 216.77 326.71 216.9 327.47 217.07 328.2 217.28 328.94 217.5 329.65 217.76 330.35 218.04 331.04 218.34 331.7 218.67 332.36 219.03 333.01 219.42 333.65 219.82 334.27 220.25 334.88 220.71 335.47 221.18 336.06 221.67 336.64 222.19 337.2 222.71 337.76 223.26 338.31 223.83 338.85 224.42 339.37 225.02 339.9 225.64 340.41 226.28 340.91 226.93 341.41 227.59 341.9 228.28 342.37 228.97 342.86 229.66 343.33 230.38 343.78 231.12 344.24 231.85 344.7 232.59 345.14 233.36 345.59 234.12 346.02 234.89 346.47 235.66 346.89 236.45 347.32 237.24 347.75 238.03 348.17 238.83 348.59 239.63 349.01 240.43 349.42 241.25 349.84 242.05 350.25 242.87 350.67 243.68 351.08 244.48 351.5 245.3 351.91 246.1 352.33 246.92 352.74 247.72 353.17 248.51 353.58 249.31 354.01 250.1 354.44 250.88 354.87 251.66 355.3 252.43 355.73 253.19 356.17 253.95 356.61 254.7 357.05 255.43 357.51 256.15 357.97 256.87 358.44 257.58 358.91 258.27 359.38 258.94 359.86 259.61 360.35 260.26 360.84 260.89 361.35 261.52 361.87 262.12 362.38 262.7 362.92 263.27 363.44 263.82 363.99 264.36 364.55 264.88 365.11 265.37 365.7 265.84 366.29 266.29 366.88 266.71 367.49 267.13 368.11 267.5 368.75 267.86 369.39 268.19 370.05 268.51 370.73 268.79 371.4 269.04 372.11 269.27 372.81 269.46 373.55 269.63 374.29 269.78 375.04 269.89 375.81 269.96 376.6 270.02 377.4 270.03 378.23"/>
  <polyline class="st3" points="216.5 323.53 216.53 324.3 216.6 325.07 216.71 325.8 216.86 326.53 217.07 327.25 217.31 327.94 217.58 328.63 217.9 329.31 218.26 329.96 218.66 330.61 219.09 331.24 219.56 331.87 220.06 332.48 220.6 333.07 221.16 333.66 221.77 334.24 222.41 334.8 223.07 335.36 223.76 335.9 224.48 336.44 225.23 336.97 226 337.48 226.8 337.99 227.63 338.49 228.49 338.97 229.36 339.46 230.24 339.94 231.16 340.41 232.1 340.87 233.05 341.32 234.02 341.77 235.01 342.21 236.02 342.65 237.05 343.08 238.08 343.51 239.12 343.94 240.18 344.35 241.26 344.76 242.34 345.18 243.43 345.58 244.54 345.98 245.65 346.38 246.77 346.78 247.9 347.18 249.02 347.57 250.15 347.97 251.29 348.36 252.43 348.76 253.57 349.15 254.71 349.53 255.85 349.94 256.98 350.32 258.11 350.71 259.25 351.11 260.38 351.5 261.5 351.9 262.62 352.3 263.73 352.7 264.83 353.1 265.93 353.52 267.02 353.92 268.08 354.33 269.15 354.76 270.2 355.17 271.23 355.6 272.26 356.03 273.27 356.47 274.25 356.92 275.22 357.36 276.17 357.82 277.11 358.29 278.02 358.76 278.92 359.23 279.79 359.71 280.63 360.19 281.46 360.7 282.27 361.2 283.04 361.73 283.79 362.25 284.52 362.78 285.21 363.33 285.87 363.88 286.51 364.45 287.1 365.02 287.67 365.61 288.21 366.21 288.72 366.81 289.18 367.44 289.62 368.07 290.01 368.72 290.37 369.37 290.69 370.05 290.98 370.74 291.21 371.43 291.4 372.15 291.56 372.88 291.68 373.63 291.74 374.38 291.76 375.15"/>
  <polyline class="st3" points="216.5 323.53 216.54 324.21 216.63 324.89 216.77 325.54 216.97 326.18 217.22 326.81 217.53 327.43 217.89 328.04 218.29 328.63 218.76 329.21 219.25 329.78 219.81 330.33 220.42 330.89 221.05 331.42 221.74 331.95 222.48 332.48 223.24 332.97 224.05 333.47 224.89 333.97 225.78 334.45 226.71 334.92 227.66 335.38 228.66 335.83 229.68 336.29 230.74 336.72 231.82 337.16 232.94 337.59 234.09 338 235.25 338.42 236.45 338.82 237.67 339.22 238.91 339.62 240.18 340.01 241.47 340.4 242.77 340.78 244.1 341.16 245.44 341.53 246.79 341.9 248.16 342.26 249.56 342.62 250.95 342.98 252.36 343.34 253.79 343.7 255.21 344.05 256.65 344.39 258.09 344.75 259.54 345.1 260.99 345.44 262.46 345.79 263.91 346.13 265.37 346.48 266.82 346.82 268.28 347.17 269.73 347.52 271.18 347.86 272.63 348.21 274.07 348.55 275.49 348.91 276.92 349.27 278.33 349.62 279.72 349.98 281.1 350.35 282.49 350.71 283.84 351.08 285.18 351.46 286.51 351.83 287.81 352.2 289.1 352.59 290.37 352.99 291.61 353.38 292.83 353.78 294.02 354.19 295.19 354.61 296.34 355.02 297.45 355.45 298.54 355.88 299.59 356.32 300.62 356.76 301.61 357.22 302.57 357.69 303.49 358.16 304.37 358.64 305.23 359.13 306.03 359.63 306.8 360.14 307.54 360.65 308.23 361.19 308.86 361.73 309.47 362.27 310.03 362.83 310.52 363.4 310.98 363.98 311.39 364.58 311.75 365.18 312.06 365.79 312.31 366.43 312.5 367.08 312.65 367.73 312.74 368.39 312.76 369.08"/>
  <polyline class="st3" points="216.5 323.53 216.54 324.07 216.66 324.61 216.82 325.13 217.06 325.66 217.37 326.16 217.73 326.65 218.16 327.15 218.66 327.62 219.21 328.09 219.82 328.55 220.48 329.01 221.22 329.43 221.99 329.88 222.82 330.29 223.69 330.72 224.62 331.12 225.6 331.52 226.62 331.91 227.69 332.3 228.81 332.68 229.95 333.06 231.16 333.42 232.39 333.77 233.66 334.13 234.97 334.48 236.31 334.83 237.7 335.16 239.11 335.49 240.56 335.82 242.02 336.14 243.52 336.46 245.05 336.77 246.6 337.08 248.18 337.4 249.76 337.7 251.38 337.99 253.03 338.3 254.69 338.59 256.35 338.88 258.03 339.17 259.73 339.46 261.45 339.73 263.17 340.02 264.9 340.3 266.64 340.58 268.4 340.85 270.14 341.14 271.9 341.42 273.65 341.7 275.42 341.97 277.18 342.25 278.93 342.53 280.68 342.8 282.43 343.08 284.17 343.37 285.9 343.65 287.63 343.92 289.34 344.21 291.04 344.5 292.73 344.79 294.4 345.08 296.05 345.37 297.69 345.66 299.31 345.97 300.9 346.27 302.48 346.58 304.03 346.88 305.56 347.2 307.05 347.52 308.53 347.85 309.97 348.17 311.38 348.5 312.76 348.84 314.1 349.17 315.42 349.53 316.69 349.88 317.92 350.24 319.12 350.61 320.27 350.99 321.39 351.36 322.45 351.75 323.48 352.13 324.46 352.53 325.38 352.95 326.26 353.36 327.08 353.79 327.87 354.22 328.59 354.66 329.26 355.11 329.86 355.58 330.42 356.03 330.91 356.52 331.34 357 331.72 357.5 332.02 358.01 332.26 358.52 332.42 359.05 332.53 359.58 332.57 360.14"/>
  <polyline class="st3" points="216.5 323.53 216.54 323.9 216.67 324.26 216.88 324.62 217.15 324.98 217.5 325.33 217.93 325.66 218.42 325.99 218.99 326.32 219.64 326.64 220.35 326.96 221.11 327.26 221.95 327.57 222.85 327.86 223.8 328.15 224.83 328.44 225.89 328.71 227.02 328.99 228.21 329.25 229.44 329.52 230.73 329.78 232.07 330.03 233.45 330.28 234.88 330.53 236.36 330.76 237.86 331.01 239.42 331.24 241.01 331.47 242.65 331.7 244.32 331.92 246.02 332.14 247.75 332.35 249.52 332.57 251.31 332.78 253.12 332.99 254.98 333.19 256.84 333.4 258.74 333.61 260.66 333.8 262.58 334.01 264.53 334.2 266.51 334.4 268.48 334.59 270.47 334.78 272.48 334.98 274.5 335.17 276.52 335.36 278.53 335.54 280.57 335.74 282.6 335.93 284.63 336.12 286.66 336.3 288.69 336.5 290.73 336.69 292.75 336.87 294.76 337.06 296.75 337.26 298.76 337.45 300.74 337.65 302.7 337.84 304.65 338.05 306.58 338.24 308.49 338.45 310.39 338.64 312.27 338.85 314.1 339.06 315.93 339.26 317.73 339.47 319.48 339.69 321.22 339.91 322.92 340.12 324.6 340.35 326.23 340.58 327.82 340.81 329.38 341.05 330.89 341.28 332.37 341.52 333.79 341.77 335.17 342.01 336.51 342.28 337.8 342.53 339.03 342.79 340.22 343.06 341.34 343.34 342.42 343.62 343.44 343.89 344.39 344.18 345.29 344.49 346.12 344.78 346.9 345.1 347.6 345.4 348.24 345.72 348.8 346.05 349.31 346.38 349.73 346.71 350.09 347.06 350.37 347.42 350.56 347.78 350.68 348.15 350.72 348.53"/>
  <polyline class="st3" points="216.5 323.53 216.56 323.7 216.7 323.85 216.92 324.01 217.22 324.17 217.62 324.32 218.09 324.47 218.66 324.61 219.3 324.75 220.01 324.9 220.8 325.04 221.66 325.16 222.6 325.3 223.61 325.42 224.67 325.55 225.82 325.67 227.02 325.8 228.28 325.92 229.61 326.05 230.99 326.16 232.44 326.27 233.94 326.38 235.48 326.49 237.07 326.6 238.73 326.71 240.43 326.81 242.18 326.92 243.96 327.01 245.78 327.11 247.65 327.21 249.56 327.3 251.49 327.4 253.47 327.5 255.49 327.6 257.52 327.68 259.59 327.77 261.68 327.86 263.81 327.95 265.95 328.04 268.11 328.12 270.31 328.22 272.51 328.3 274.72 328.38 276.96 328.47 279.2 328.55 281.45 328.63 283.72 328.71 285.98 328.8 288.25 328.88 290.53 328.96 292.81 329.05 295.1 329.13 297.36 329.21 299.63 329.31 301.9 329.39 304.15 329.48 306.39 329.56 308.63 329.64 310.84 329.72 313.05 329.81 315.24 329.9 317.39 329.99 319.54 330.07 321.67 330.17 323.75 330.25 325.83 330.35 327.86 330.43 329.88 330.53 331.85 330.62 333.79 330.72 335.7 330.82 337.56 330.91 339.39 331.01 341.17 331.11 342.91 331.22 344.61 331.31 346.27 331.42 347.86 331.54 349.41 331.65 350.9 331.76 352.36 331.87 353.74 331.98 355.07 332.1 356.32 332.23 357.53 332.34 358.67 332.46 359.74 332.6 360.75 332.72 361.69 332.86 362.54 332.99 363.33 333.12 364.05 333.26 364.69 333.42 365.25 333.55 365.72 333.71 366.13 333.86 366.43 334.01 366.65 334.18 366.79 334.33 366.84 334.49"/>
  <polyline class="st3" points="216.5 323.53 216.56 323.45 216.71 323.38 216.95 323.3 217.29 323.23 217.72 323.16 218.25 323.09 218.85 323.02 219.54 322.95 220.33 322.88 221.19 322.83 222.13 322.76 223.15 322.69 224.25 322.63 225.42 322.58 226.66 322.52 227.98 322.45 229.36 322.4 230.81 322.34 232.32 322.29 233.89 322.25 235.53 322.19 237.21 322.13 238.95 322.08 240.75 322.04 242.6 321.98 244.51 321.94 246.46 321.89 248.45 321.84 250.48 321.8 252.57 321.75 254.69 321.71 256.84 321.66 259.04 321.62 261.27 321.58 263.52 321.54 265.8 321.48 268.12 321.44 270.46 321.4 272.82 321.37 275.2 321.33 277.61 321.29 280.03 321.25 282.46 321.21 284.91 321.17 287.37 321.13 289.84 321.08 292.32 321.04 294.8 321.01 297.28 320.97 299.77 320.93 302.26 320.89 304.73 320.85 307.21 320.82 309.68 320.78 312.14 320.74 314.59 320.7 317.02 320.66 319.44 320.61 321.85 320.57 324.22 320.53 326.59 320.49 328.94 320.45 331.25 320.41 333.53 320.36 335.79 320.32 338.02 320.28 340.2 320.24 342.36 320.2 344.48 320.16 346.56 320.1 348.6 320.06 350.6 320.02 352.54 319.96 354.44 319.92 356.3 319.87 358.09 319.83 359.83 319.77 361.54 319.72 363.17 319.66 364.73 319.6 366.25 319.56 367.69 319.51 369.07 319.44 370.38 319.38 371.63 319.33 372.8 319.27 373.89 319.2 374.92 319.15 375.86 319.08 376.71 319.02 377.5 318.95 378.19 318.89 378.8 318.82 379.33 318.75 379.76 318.68 380.1 318.61 380.34 318.53 380.49 318.46 380.54 318.37"/>
  <polyline class="st3" points="216.5 323.53 216.56 323.19 216.72 322.84 216.99 322.51 217.35 322.19 217.8 321.87 218.36 321.55 219.01 321.25 219.75 320.95 220.58 320.66 221.51 320.36 222.52 320.09 223.6 319.81 224.77 319.54 226.01 319.27 227.34 319.01 228.75 318.75 230.22 318.5 231.77 318.25 233.37 318.01 235.06 317.78 236.8 317.54 238.59 317.31 240.46 317.09 242.38 316.87 244.36 316.65 246.38 316.42 248.47 316.22 250.59 316.01 252.76 315.8 254.99 315.6 257.24 315.4 259.55 315.19 261.89 315 264.25 314.81 266.67 314.63 269.11 314.43 271.58 314.25 274.07 314.06 276.6 313.88 279.14 313.7 281.7 313.52 284.28 313.34 286.88 313.16 289.5 312.98 292.12 312.82 294.75 312.64 297.39 312.46 300.04 312.29 302.7 312.11 305.34 311.93 307.99 311.77 310.65 311.59 313.29 311.41 315.91 311.24 318.54 311.06 321.15 310.88 323.75 310.7 326.34 310.52 328.9 310.34 331.44 310.16 333.97 309.98 336.46 309.8 338.93 309.61 341.37 309.43 343.78 309.24 346.15 309.04 348.5 308.85 350.79 308.66 353.06 308.45 355.27 308.24 357.44 308.05 359.57 307.83 361.66 307.62 363.68 307.41 365.66 307.19 367.58 306.97 369.44 306.73 371.24 306.51 372.98 306.28 374.67 306.03 376.27 305.79 377.82 305.55 379.3 305.3 380.7 305.03 382.02 304.77 383.27 304.51 384.44 304.23 385.53 303.96 386.53 303.68 387.46 303.39 388.29 303.1 389.03 302.79 389.68 302.49 390.23 302.19 390.69 301.85 391.06 301.54 391.31 301.2 391.48 300.87 391.53 300.53"/>
  <polyline class="st3" points="216.5 323.53 216.56 322.89 216.72 322.27 217 321.66 217.39 321.07 217.86 320.49 218.44 319.91 219.13 319.36 219.9 318.8 220.78 318.26 221.73 317.74 222.79 317.21 223.93 316.72 225.14 316.2 226.46 315.72 227.84 315.24 229.3 314.77 230.85 314.31 232.46 313.85 234.14 313.41 235.9 312.97 237.72 312.54 239.6 312.13 241.55 311.71 243.57 311.3 245.63 310.9 247.76 310.51 249.93 310.12 252.16 309.73 254.42 309.36 256.75 308.99 259.11 308.61 261.52 308.25 263.96 307.9 266.45 307.55 268.97 307.19 271.52 306.84 274.1 306.51 276.71 306.17 279.35 305.84 282 305.5 284.69 305.17 287.39 304.84 290.1 304.52 292.84 304.19 295.59 303.87 298.34 303.55 301.11 303.22 303.87 302.9 306.65 302.59 309.42 302.27 312.2 301.95 314.96 301.63 317.73 301.3 320.48 300.98 323.23 300.67 325.97 300.33 328.67 300.02 331.37 299.68 334.05 299.35 336.72 299.02 339.36 298.69 341.96 298.34 344.55 298.01 347.1 297.67 349.62 297.31 352.11 296.96 354.55 296.6 356.96 296.24 359.32 295.87 361.65 295.49 363.91 295.12 366.14 294.73 368.31 294.35 370.44 293.96 372.5 293.56 374.52 293.14 376.45 292.73 378.35 292.32 380.17 291.89 381.93 291.44 383.61 291 385.22 290.55 386.76 290.09 388.23 289.62 389.61 289.14 390.93 288.64 392.14 288.14 393.28 287.64 394.33 287.12 395.29 286.59 396.17 286.05 396.94 285.5 397.62 284.95 398.21 284.37 398.68 283.79 399.07 283.19 399.35 282.58 399.5 281.96 399.57 281.32"/>
  <polyline class="st3" points="216.5 323.53 216.57 322.59 216.74 321.68 217.01 320.78 217.4 319.89 217.9 319.04 218.49 318.19 219.2 317.36 219.99 316.55 220.89 315.76 221.88 314.97 222.96 314.21 224.12 313.47 225.38 312.72 226.72 312 228.14 311.3 229.65 310.6 231.23 309.91 232.89 309.25 234.61 308.59 236.42 307.95 238.29 307.31 240.23 306.69 242.23 306.08 244.29 305.48 246.41 304.88 248.59 304.3 250.82 303.72 253.11 303.17 255.45 302.6 257.82 302.06 260.26 301.51 262.72 300.98 265.23 300.46 267.78 299.93 270.38 299.42 272.99 298.91 275.64 298.4 278.33 297.9 281.02 297.4 283.76 296.92 286.51 296.42 289.29 295.94 292.08 295.47 294.89 294.98 297.69 294.51 300.53 294.03 303.36 293.56 306.21 293.09 309.06 292.62 311.91 292.14 314.75 291.67 317.59 291.2 320.44 290.73 323.26 290.24 326.08 289.77 328.88 289.29 331.67 288.8 334.44 288.32 337.2 287.84 339.93 287.35 342.64 286.85 345.32 286.36 347.97 285.85 350.59 285.33 353.17 284.82 355.73 284.3 358.23 283.77 360.71 283.23 363.14 282.69 365.52 282.15 367.85 281.59 370.13 281.02 372.37 280.45 374.54 279.87 376.67 279.28 378.73 278.67 380.74 278.06 382.67 277.44 384.54 276.8 386.34 276.15 388.06 275.5 389.72 274.83 391.31 274.15 392.82 273.46 394.24 272.75 395.58 272.03 396.83 271.29 398 270.54 399.08 269.78 400.08 268.99 400.96 268.21 401.76 267.39 402.47 266.56 403.06 265.72 403.55 264.86 403.95 263.98 404.23 263.08 404.39 262.16 404.45 261.22"/>
  <polyline class="st3" points="354.62 220.21 354.64 219.9 354.68 219.6 354.73 219.31 354.83 219.03 354.95 218.74 355.09 218.48 355.26 218.2 355.45 217.94 355.66 217.68 355.9 217.43 356.16 217.18 356.43 216.94 356.74 216.7 357.06 216.46 357.4 216.24 357.76 216.02 358.13 215.8 358.54 215.58 358.95 215.37 359.38 215.15 359.82 214.95 360.29 214.75 360.78 214.55 361.26 214.35 361.77 214.17 362.3 213.97 362.82 213.78 363.37 213.6 363.93 213.42 364.49 213.24 365.07 213.07 365.67 212.89 366.26 212.73 366.89 212.55 367.49 212.38 368.13 212.22 368.75 212.06 369.4 211.9 370.05 211.73 370.7 211.58 371.36 211.41 372.01 211.26 372.69 211.11 373.36 210.94 374.03 210.79 374.71 210.64 375.39 210.49 376.06 210.34 376.74 210.18 377.43 210.03 378.11 209.88 378.79 209.73 379.47 209.56 380.14 209.41 380.82 209.26 381.48 209.11 382.16 208.95 382.83 208.79 383.47 208.64 384.14 208.47 384.77 208.32 385.42 208.15 386.06 207.99 386.68 207.82 387.3 207.65 387.91 207.49 388.51 207.31 389.1 207.14 389.68 206.96 390.25 206.78 390.8 206.6 391.35 206.42 391.89 206.24 392.41 206.05 392.92 205.86 393.41 205.66 393.88 205.47 394.35 205.26 394.8 205.06 395.23 204.85 395.64 204.64 396.04 204.42 396.41 204.2 396.77 203.98 397.12 203.74 397.44 203.51 397.74 203.27 398.02 203.02 398.28 202.77 398.52 202.53 398.72 202.26 398.92 202 399.08 201.74 399.22 201.46 399.35 201.18 399.44 200.89 399.51 200.6 399.55 200.31 399.57 200.01"/>
  <path class="st5" d="M297.97,233.81c0-5.24,4.3-9.54,9.54-9.54s9.54,4.3,9.54,9.54-4.29,9.54-9.54,9.54-9.54-4.29-9.54-9.54"/>
  <path class="st3" d="M297.97,233.81c0-5.24,4.3-9.54,9.54-9.54s9.54,4.3,9.54,9.54-4.29,9.54-9.54,9.54-9.54-4.29-9.54-9.54"/>
  <path class="st5" d="M296.56,220.72c0-3.65,2.99-6.65,6.65-6.65s6.64,3,6.64,6.65-2.99,6.64-6.64,6.64-6.65-2.99-6.65-6.64"/>
  <path class="st3" d="M296.56,220.72c0-3.65,2.99-6.65,6.65-6.65s6.64,3,6.64,6.65-2.99,6.64-6.64,6.64-6.65-2.99-6.65-6.64"/>
  <path class="st5" d="M271.52,200.84c0-6.61,5.42-12.01,12.03-12.01s12.03,5.41,12.03,12.01-5.42,12.03-12.03,12.03-12.03-5.41-12.03-12.03"/>
  <path class="st3" d="M271.52,200.84c0-6.61,5.42-12.01,12.03-12.01s12.03,5.41,12.03,12.01-5.42,12.03-12.03,12.03-12.03-5.41-12.03-12.03"/>
  <path class="st5" d="M210.82,209.4c0-6.76,5.53-12.29,12.29-12.29s12.29,5.53,12.29,12.29-5.53,12.29-12.29,12.29-12.29-5.53-12.29-12.29"/>
  <path class="st3" d="M210.82,209.4c0-6.76,5.53-12.29,12.29-12.29s12.29,5.53,12.29,12.29-5.53,12.29-12.29,12.29-12.29-5.53-12.29-12.29"/>
  <path class="st0" d="M329.05,183.32c0-3.65,2.99-6.64,6.64-6.64s6.65,2.99,6.65,6.64-2.99,6.65-6.65,6.65-6.64-2.99-6.64-6.65"/>
  <path class="st3" d="M329.05,183.32c0-3.65,2.99-6.64,6.64-6.64s6.65,2.99,6.65,6.64-2.99,6.65-6.65,6.65-6.64-2.99-6.64-6.65"/>
  <path class="st0" d="M239.7,148.96c0-6.61,5.41-12.01,12.01-12.01s12.03,5.41,12.03,12.01-5.41,12.03-12.03,12.03-12.01-5.42-12.01-12.03"/>
  <path class="st3" d="M239.7,148.96c0-6.61,5.41-12.01,12.01-12.01s12.03,5.41,12.03,12.01-5.41,12.03-12.03,12.03-12.01-5.42-12.01-12.03"/>
  <path class="st0" d="M204.21,323.53c0-6.76,5.53-12.29,12.29-12.29s12.29,5.53,12.29,12.29-5.53,12.29-12.29,12.29-12.29-5.53-12.29-12.29"/>
  <path class="st3" d="M204.21,323.53c0-6.76,5.53-12.29,12.29-12.29s12.29,5.53,12.29,12.29-5.53,12.29-12.29,12.29-12.29-5.53-12.29-12.29"/>
  <path class="st0" d="M345.07,220.21c0-5.25,4.3-9.54,9.55-9.54s9.54,4.29,9.54,9.54-4.3,9.54-9.54,9.54-9.55-4.3-9.55-9.54"/>
  <path class="st3" d="M345.07,220.21c0-5.25,4.3-9.54,9.55-9.54s9.54,4.29,9.54,9.54-4.3,9.54-9.54,9.54-9.55-4.3-9.55-9.54"/>
  <path class="st1" d="M128.76,162.96c0-4.84,3.95-8.78,8.79-8.78s8.78,3.94,8.78,8.78-3.95,8.78-8.78,8.78-8.79-3.95-8.79-8.78"/>
  <path class="st3" d="M128.76,162.96c0-4.84,3.95-8.78,8.79-8.78s8.78,3.94,8.78,8.78-3.95,8.78-8.78,8.78-8.79-3.95-8.79-8.78"/>
  <path class="st1" d="M120.22,180.81c0-3.48,2.86-6.33,6.35-6.33s6.33,2.85,6.33,6.33-2.85,6.35-6.33,6.35-6.35-2.85-6.35-6.35"/>
  <path class="st3" d="M120.22,180.81c0-3.48,2.86-6.33,6.35-6.33s6.33,2.85,6.33,6.33-2.85,6.35-6.33,6.35-6.35-2.85-6.35-6.35"/>
  <path class="st1" d="M113.7,200.01c0-2.65,2.17-4.84,4.82-4.84s4.82,2.18,4.82,4.84-2.17,4.82-4.82,4.82-4.82-2.17-4.82-4.82"/>
  <path class="st3" d="M113.7,200.01c0-2.65,2.17-4.84,4.82-4.84s4.82,2.18,4.82,4.84-2.17,4.82-4.82,4.82-4.82-2.17-4.82-4.82"/>
  <path class="st1" d="M108.37,220.11c0-2.9,2.36-5.28,5.27-5.28s5.27,2.38,5.27,5.28-2.36,5.27-5.27,5.27-5.27-2.38-5.27-5.27"/>
  <path class="st3" d="M108.37,220.11c0-2.9,2.36-5.28,5.27-5.28s5.27,2.38,5.27,5.28-2.36,5.27-5.27,5.27-5.27-2.38-5.27-5.27"/>
  <path class="st1" d="M108.38,240.67c0-1.99,1.62-3.62,3.61-3.62s3.62,1.63,3.62,3.62-1.63,3.62-3.62,3.62-3.61-1.63-3.61-3.62"/>
  <path class="st3" d="M108.38,240.67c0-1.99,1.62-3.62,3.61-3.62s3.62,1.63,3.62,3.62-1.63,3.62-3.62,3.62-3.61-1.63-3.61-3.62"/>
  <path class="st1" d="M108.37,261.22c0-2.89,2.36-5.27,5.27-5.27s5.27,2.38,5.27,5.27-2.36,5.28-5.27,5.28-5.27-2.38-5.27-5.28"/>
  <path class="st3" d="M108.37,261.22c0-2.89,2.36-5.27,5.27-5.27s5.27,2.38,5.27,5.27-2.36,5.28-5.27,5.28-5.27-2.38-5.27-5.28"/>
  <path class="st1" d="M114.91,281.32c0-1.99,1.63-3.61,3.62-3.61s3.62,1.62,3.62,3.61-1.63,3.62-3.62,3.62-3.62-1.63-3.62-3.62"/>
  <path class="st3" d="M114.91,281.32c0-1.99,1.63-3.61,3.62-3.61s3.62,1.62,3.62,3.61-1.63,3.62-3.62,3.62-3.62-1.63-3.62-3.62"/>
  <path class="st1" d="M122.94,300.53c0-1.99,1.63-3.62,3.62-3.62s3.61,1.63,3.61,3.62-1.62,3.61-3.61,3.61-3.62-1.62-3.62-3.61"/>
  <path class="st3" d="M122.94,300.53c0-1.99,1.63-3.62,3.62-3.62s3.61,1.63,3.61,3.62-1.62,3.61-3.61,3.61-3.62-1.62-3.62-3.61"/>
  <path class="st1" d="M131.88,318.37c0-3.11,2.54-5.65,5.67-5.65s5.65,2.54,5.65,5.65-2.54,5.67-5.65,5.67-5.67-2.56-5.67-5.67"/>
  <path class="st3" d="M131.88,318.37c0-3.11,2.54-5.65,5.67-5.65s5.65,2.54,5.65,5.65-2.54,5.67-5.65,5.67-5.67-2.56-5.67-5.67"/>
  <path class="st1" d="M147.63,334.49c0-1.99,1.63-3.61,3.62-3.61s3.62,1.62,3.62,3.61-1.63,3.62-3.62,3.62-3.62-1.63-3.62-3.62"/>
  <path class="st3" d="M147.63,334.49c0-1.99,1.63-3.61,3.62-3.61s3.62,1.62,3.62,3.61-1.63,3.62-3.62,3.62-3.62-1.63-3.62-3.62"/>
  <path class="st1" d="M165.39,348.53c0-1.09.88-1.96,1.96-1.96s1.96.87,1.96,1.96-.88,1.96-1.96,1.96-1.96-.88-1.96-1.96"/>
  <path class="st3" d="M165.39,348.53c0-1.09.88-1.96,1.96-1.96s1.96.87,1.96,1.96-.88,1.96-1.96,1.96-1.96-.88-1.96-1.96"/>
  <path class="st1" d="M183.56,360.14c0-1.08.88-1.96,1.96-1.96s1.96.88,1.96,1.96-.88,1.96-1.96,1.96-1.96-.88-1.96-1.96"/>
  <path class="st3" d="M183.56,360.14c0-1.08.88-1.96,1.96-1.96s1.96.88,1.96,1.96-.88,1.96-1.96,1.96-1.96-.88-1.96-1.96"/>
  <path class="st1" d="M203.36,369.08c0-1.08.88-1.96,1.96-1.96s1.96.88,1.96,1.96-.88,1.96-1.96,1.96-1.96-.88-1.96-1.96"/>
  <path class="st3" d="M203.36,369.08c0-1.08.88-1.96,1.96-1.96s1.96.88,1.96,1.96-.88,1.96-1.96,1.96-1.96-.88-1.96-1.96"/>
  <path class="st1" d="M221.49,375.15c0-2.65,2.17-4.82,4.82-4.82s4.84,2.17,4.84,4.82-2.18,4.84-4.84,4.84-4.82-2.17-4.82-4.84"/>
  <path class="st3" d="M221.49,375.15c0-2.65,2.17-4.82,4.82-4.82s4.84,2.17,4.84,4.82-2.18,4.84-4.84,4.84-4.82-2.17-4.82-4.84"/>
  <path class="st1" d="M244.44,378.23c0-1.99,1.62-3.62,3.61-3.62s3.62,1.63,3.62,3.62-1.63,3.62-3.62,3.62-3.61-1.63-3.61-3.62"/>
  <path class="st3" d="M244.44,378.23c0-1.99,1.62-3.62,3.61-3.62s3.62,1.63,3.62,3.62-1.63,3.62-3.62,3.62-3.61-1.63-3.61-3.62"/>
  <path class="st1" d="M265.21,378.23c0-2.65,2.17-4.82,4.82-4.82s4.82,2.17,4.82,4.82-2.17,4.82-4.82,4.82-4.82-2.17-4.82-4.82"/>
  <path class="st3" d="M265.21,378.23c0-2.65,2.17-4.82,4.82-4.82s4.82,2.17,4.82,4.82-2.17,4.82-4.82,4.82-4.82-2.17-4.82-4.82"/>
  <path class="st1" d="M286.11,375.15c0-3.11,2.54-5.65,5.65-5.65s5.67,2.54,5.67,5.65-2.56,5.67-5.67,5.67-5.65-2.54-5.65-5.67"/>
  <path class="st3" d="M286.11,375.15c0-3.11,2.54-5.65,5.65-5.65s5.67,2.54,5.67,5.65-2.56,5.67-5.67,5.67-5.65-2.54-5.65-5.67"/>
  <path class="st1" d="M310.8,369.08c0-1.08.88-1.96,1.96-1.96s1.96.88,1.96,1.96-.88,1.96-1.96,1.96-1.96-.88-1.96-1.96"/>
  <path class="st3" d="M310.8,369.08c0-1.08.88-1.96,1.96-1.96s1.96.88,1.96,1.96-.88,1.96-1.96,1.96-1.96-.88-1.96-1.96"/>
  <path class="st1" d="M327.73,360.14c0-2.65,2.18-4.82,4.84-4.82s4.82,2.17,4.82,4.82-2.17,4.82-4.82,4.82-4.84-2.17-4.84-4.82"/>
  <path class="st3" d="M327.73,360.14c0-2.65,2.18-4.82,4.84-4.82s4.82,2.17,4.82,4.82-2.17,4.82-4.82,4.82-4.84-2.17-4.84-4.82"/>
  <path class="st1" d="M346.43,348.53c0-2.38,1.94-4.31,4.3-4.31s4.3,1.94,4.3,4.31-1.94,4.3-4.3,4.3-4.3-1.94-4.3-4.3"/>
  <path class="st3" d="M346.43,348.53c0-2.38,1.94-4.31,4.3-4.31s4.3,1.94,4.3,4.31-1.94,4.3-4.3,4.3-4.3-1.94-4.3-4.3"/>
  <path class="st1" d="M364.87,334.49c0-1.08.88-1.96,1.98-1.96s1.96.88,1.96,1.96-.88,1.96-1.96,1.96-1.98-.88-1.98-1.96"/>
  <path class="st3" d="M364.87,334.49c0-1.08.88-1.96,1.98-1.96s1.96.88,1.96,1.96-.88,1.96-1.96,1.96-1.98-.88-1.98-1.96"/>
  <path class="st1" d="M378.58,318.37c0-1.08.88-1.96,1.96-1.96s1.96.88,1.96,1.96-.88,1.96-1.96,1.96-1.96-.88-1.96-1.96"/>
  <path class="st3" d="M378.58,318.37c0-1.08.88-1.96,1.96-1.96s1.96.88,1.96,1.96-.88,1.96-1.96,1.96-1.96-.88-1.96-1.96"/>
  <path class="st1" d="M387.91,300.53c0-1.99,1.63-3.62,3.62-3.62s3.61,1.63,3.61,3.62-1.62,3.61-3.61,3.61-3.62-1.62-3.62-3.61"/>
  <path class="st3" d="M387.91,300.53c0-1.99,1.63-3.62,3.62-3.62s3.61,1.63,3.61,3.62-1.62,3.61-3.61,3.61-3.62-1.62-3.62-3.61"/>
  <path class="st1" d="M395.94,281.32c0-1.99,1.63-3.61,3.62-3.61s3.61,1.62,3.61,3.61-1.63,3.62-3.61,3.62-3.62-1.63-3.62-3.62"/>
  <path class="st3" d="M395.94,281.32c0-1.99,1.63-3.61,3.62-3.61s3.61,1.62,3.61,3.61-1.63,3.62-3.61,3.62-3.62-1.63-3.62-3.62"/>
  <path class="st1" d="M400.84,261.22c0-1.99,1.62-3.61,3.61-3.61s3.62,1.62,3.62,3.61-1.63,3.62-3.62,3.62-3.61-1.63-3.61-3.62"/>
  <path class="st3" d="M400.84,261.22c0-1.99,1.62-3.61,3.61-3.61s3.62,1.62,3.62,3.61-1.63,3.62-3.62,3.62-3.61-1.63-3.61-3.62"/>
  <path class="st1" d="M373.89,162.96c0-3.65,3-6.65,6.65-6.65s6.64,3,6.64,6.65-2.99,6.64-6.64,6.64-6.65-2.99-6.65-6.64"/>
  <path class="st3" d="M373.89,162.96c0-3.65,3-6.65,6.65-6.65s6.64,3,6.64,6.65-2.99,6.64-6.64,6.64-6.65-2.99-6.65-6.64"/>
  <path class="st1" d="M305.57,112.25c0-3.95,3.23-7.19,7.19-7.19s7.2,3.23,7.2,7.19-3.25,7.19-7.2,7.19-7.19-3.23-7.19-7.19"/>
  <path class="st3" d="M305.57,112.25c0-3.95,3.23-7.19,7.19-7.19s7.2,3.23,7.2,7.19-3.25,7.19-7.2,7.19-7.19-3.23-7.19-7.19"/>
  <path class="st1" d="M360.82,146.84c0-3.32,2.71-6.01,6.03-6.01s6.01,2.7,6.01,6.01-2.71,6.01-6.01,6.01-6.03-2.71-6.03-6.01"/>
  <path class="st3" d="M360.82,146.84c0-3.32,2.71-6.01,6.03-6.01s6.01,2.7,6.01,6.01-2.71,6.01-6.01,6.01-6.03-2.71-6.03-6.01"/>
  <path class="st1" d="M344.71,132.81c0-3.3,2.71-6.01,6.01-6.01s6.01,2.71,6.01,6.01-2.71,6.01-6.01,6.01-6.01-2.7-6.01-6.01"/>
  <path class="st3" d="M344.71,132.81c0-3.3,2.71-6.01,6.01-6.01s6.01,2.71,6.01,6.01-2.71,6.01-6.01,6.01-6.01-2.7-6.01-6.01"/>
  <path class="st1" d="M286.11,106.18c0-3.12,2.54-5.67,5.65-5.67s5.67,2.54,5.67,5.67-2.56,5.65-5.67,5.65-5.65-2.54-5.65-5.65"/>
  <path class="st3" d="M286.11,106.18c0-3.12,2.54-5.67,5.65-5.67s5.67,2.54,5.67,5.67-2.56,5.65-5.67,5.65-5.65-2.54-5.65-5.65"/>
  <path class="st1" d="M265.73,103.1c0-2.36,1.94-4.3,4.3-4.3s4.3,1.94,4.3,4.3-1.94,4.31-4.3,4.31-4.3-1.95-4.3-4.31"/>
  <path class="st3" d="M265.73,103.1c0-2.36,1.94-4.3,4.3-4.3s4.3,1.94,4.3,4.3-1.94,4.31-4.3,4.31-4.3-1.95-4.3-4.31"/>
  <path class="st1" d="M242.78,103.1c0-2.89,2.38-5.27,5.27-5.27s5.28,2.38,5.28,5.27-2.38,5.28-5.28,5.28-5.27-2.38-5.27-5.28"/>
  <path class="st3" d="M242.78,103.1c0-2.89,2.38-5.27,5.27-5.27s5.28,2.38,5.28,5.27-2.38,5.28-5.28,5.28-5.27-2.38-5.27-5.28"/>
  <path class="st1" d="M222.02,106.18c0-2.38,1.94-4.31,4.3-4.31s4.31,1.94,4.31,4.31-1.95,4.3-4.31,4.3-4.3-1.94-4.3-4.3"/>
  <path class="st3" d="M222.02,106.18c0-2.38,1.94-4.31,4.3-4.31s4.31,1.94,4.31,4.31-1.95,4.3-4.31,4.3-4.3-1.94-4.3-4.3"/>
  <path class="st1" d="M203.36,112.25c0-1.08.88-1.96,1.96-1.96s1.96.88,1.96,1.96-.88,1.96-1.96,1.96-1.96-.88-1.96-1.96"/>
  <path class="st3" d="M203.36,112.25c0-1.08.88-1.96,1.96-1.96s1.96.88,1.96,1.96-.88,1.96-1.96,1.96-1.96-.88-1.96-1.96"/>
  <path class="st1" d="M183.56,121.2c0-1.08.88-1.96,1.96-1.96s1.96.88,1.96,1.96-.88,1.96-1.96,1.96-1.96-.88-1.96-1.96"/>
  <path class="st3" d="M183.56,121.2c0-1.08.88-1.96,1.96-1.96s1.96.88,1.96,1.96-.88,1.96-1.96,1.96-1.96-.88-1.96-1.96"/>
  <path class="st1" d="M162.53,132.81c0-2.65,2.17-4.82,4.82-4.82s4.84,2.17,4.84,4.82-2.18,4.84-4.84,4.84-4.82-2.18-4.82-4.84"/>
  <path class="st3" d="M162.53,132.81c0-2.65,2.17-4.82,4.82-4.82s4.84,2.17,4.84,4.82-2.18,4.84-4.84,4.84-4.82-2.18-4.82-4.84"/>
  <path class="st1" d="M390.01,200.01c0-5.25,4.3-9.54,9.55-9.54s9.54,4.29,9.54,9.54-4.3,9.54-9.54,9.54-9.55-4.3-9.55-9.54"/>
  <path class="st3" d="M390.01,200.01c0-5.25,4.3-9.54,9.55-9.54s9.54,4.29,9.54,9.54-4.3,9.54-9.54,9.54-9.55-4.3-9.55-9.54"/>
</svg>